<svg xmlns="http://www.w3.org/2000/svg" viewBox="0 0 60 60">
<defs>
    <style>
      .st0 {
        fill: #fff;
      }
    </style>
  </defs>
<path class="st0" d="M30,0C13.4,0,0,13.4,0,30s13.4,30,30,30s30-13.4,30-30S46.6,0,30,0z M44.5,24.9c-0.9,5.8-1.9,11.6-2.9,17.4
	c-0.3,1.9-2.8,2.9-4.3,1.7c-3.7-2.5-7.5-5-11.1-7.6c-1.2-1.2-0.1-3,1-3.8c3.1-3,6.3-5.6,9.2-8.8c0.8-1.9-1.5-0.3-2.3,0.2
	c-4.2,2.9-8.3,6-12.7,8.5c-2.3,1.2-4.9,0.2-7.1-0.5c-2-0.8-5-1.7-3.2-3l0,0c3.6-2,7.6-3.6,11.3-5.3c6.4-2.7,12.9-5.4,19.4-7.9
	c1.3-0.4,3.5-0.8,3.8,1C45.4,19.6,44.9,22.2,44.5,24.9z"/>
</svg>
