<svg xmlns="http://www.w3.org/2000/svg" viewBox="0 0 60 60">
  <defs>
    <style>
      .cls-1 {
        fill: #000;
      }
    </style>
  </defs>
  <path id="Path_1125" data-name="Path 1125" class="cls-1" d="M46.8,44.1V32.4c0-6.3-3.3-9.2-7.8-9.2a6.7,6.7,0,0,0-6.1,3.4V23.7H26.1c.1,1.9,0,20.4,0,20.4h6.8V32.7a4.678,4.678,0,0,1,.2-1.7,3.764,3.764,0,0,1,3.5-2.5c2.5,0,3.4,1.9,3.4,4.6V44l6.8.1ZM19,20.9a3.512,3.512,0,1,0,0-7,3.5,3.5,0,0,0-3.8,3.5c0,2,1.4,3.5,3.8,3.5ZM30,60A30,30,0,1,1,60,30,29.96,29.96,0,0,1,30,60ZM22.4,44.1V23.7H15.6V44.1Z"/>
</svg>
