<svg xmlns="http://www.w3.org/2000/svg" viewBox="0 0 60 60">
  <defs>
    <style>
      .cls-1 {
        fill: #fff;
      }
    </style>
  </defs>
  <path id="iconmonstr-twitter-4" class="cls-1" d="M30,0A30,30,0,1,0,60,30,30,30,0,0,0,30,0ZM45.165,24.113c.458,10.1-7.075,21.36-20.41,21.36A20.316,20.316,0,0,1,13.75,42.245a14.446,14.446,0,0,0,10.63-2.972,7.2,7.2,0,0,1-6.71-4.987,7.2,7.2,0,0,0,3.245-.122,7.191,7.191,0,0,1-5.76-7.132,7.163,7.163,0,0,0,3.253.9,7.191,7.191,0,0,1-2.222-9.587,20.382,20.382,0,0,0,14.8,7.5,7.186,7.186,0,0,1,12.238-6.55,14.323,14.323,0,0,0,4.56-1.743,7.21,7.21,0,0,1-3.158,3.972,14.324,14.324,0,0,0,4.122-1.132A14.413,14.413,0,0,1,45.165,24.113Z"/>
</svg>
