<?xml version="1.0" encoding="utf-8"?>
<!-- Generator: Adobe Illustrator 23.1.1, SVG Export Plug-In . SVG Version: 6.00 Build 0)  -->
<svg version="1.1" id="Group_1691" xmlns="http://www.w3.org/2000/svg" xmlns:xlink="http://www.w3.org/1999/xlink" x="0px" y="0px"
	 viewBox="0 0 60 60" style="enable-background:new 0 0 60 60;" xml:space="preserve">
<style type="text/css">
	.st0{fill:#FFFFFF;}
</style>
<path class="st0" d="M30,9c11.6,0,21,9.4,21,21s-9.4,21-21,21S9,41.6,9,30S18.4,9,30,9 M30,0C13.4,0,0,13.4,0,30s13.4,30,30,30
	s30-13.4,30-30S46.6,0,30,0L30,0z"/>
<circle id="Ellipse_7_1_" class="st0" cx="30.3" cy="30.4" r="5.5"/>
<path id="Path_1126_1_" class="st0" d="M43.1,20.7c-0.6-1.4-1.7-2.5-3.1-3.1c-1-0.4-2-0.6-3-0.6c-1.7-0.1-2.2-0.1-6.6-0.1
	c-4.3,0-4.9,0-6.6,0.1c-1,0-2.1,0.2-3,0.6c-1.4,0.6-2.5,1.7-3.1,3.1c-0.4,1-0.6,2-0.6,3c-0.1,1.7-0.1,2.2-0.1,6.6
	c0,4.3,0,4.9,0.1,6.6c0,1,0.2,2.1,0.6,3c0.6,1.4,1.7,2.5,3.1,3.1c1,0.4,2,0.6,3,0.6c1.7,0.1,2.2,0.1,6.6,0.1c4.3,0,4.9,0,6.6-0.1
	c1,0,2.1-0.2,3-0.6c1.4-0.6,2.5-1.7,3.1-3.1c0.4-1,0.6-2,0.6-3c0.1-1.7,0.1-2.2,0.1-6.6c0-4.3,0-4.9-0.1-6.6
	C43.6,22.7,43.4,21.7,43.1,20.7z M30.3,38.7c-4.6,0-8.4-3.8-8.4-8.4s3.8-8.4,8.4-8.4s8.4,3.8,8.4,8.4C38.7,35,35,38.7,30.3,38.7
	C30.3,38.7,30.3,38.7,30.3,38.7z M39.1,23.6c-1.1,0-2-0.9-2-2c0-1.1,0.9-2,2-2c1.1,0,2,0.9,2,2C41,22.8,40.1,23.6,39.1,23.6z"/>
<path id="Path_1127_1_" class="st0" d="M30,5.5C16.5,5.5,5.5,16.5,5.5,30s11,24.5,24.5,24.5s24.5-11,24.5-24.5
	C54.5,16.5,43.6,5.5,30,5.5C30,5.5,30,5.5,30,5.5z M46.6,37.1c0,1.4-0.3,2.7-0.7,4c-0.9,2.2-2.6,3.9-4.7,4.7c-1.3,0.5-2.6,0.7-4,0.7
	c-1.7,0.1-2.3,0.1-6.7,0.1s-5,0-6.7-0.1c-1.4,0-2.7-0.3-4-0.7c-2.2-0.9-3.9-2.6-4.7-4.7c-0.5-1.3-0.7-2.6-0.7-4
	c-0.1-1.7-0.1-2.3-0.1-6.7s0-5,0.1-6.7c0-1.4,0.3-2.7,0.7-4c0.9-2.2,2.6-3.9,4.7-4.7c1.3-0.5,2.6-0.7,4-0.7c1.7-0.1,2.3-0.1,6.7-0.1
	s5,0,6.7,0.1c1.4,0,2.7,0.3,4,0.7c2.2,0.9,3.9,2.6,4.7,4.7c0.5,1.3,0.7,2.6,0.7,4c0.1,1.7,0.1,2.3,0.1,6.7S46.6,35.3,46.6,37.1z"/>
</svg>
