<svg xmlns="http://www.w3.org/2000/svg" viewBox="0 0 60 60">
  <defs>
    <style>
      .cls-1 {
        fill: #000;
      }
    </style>
  </defs>
  <g id="_901c666c69aca342b19513555d62ff9c" data-name="901c666c69aca342b19513555d62ff9c" transform="translate(-10 -10)">
    <path id="Path_1131" data-name="Path 1131" class="cls-1" d="M40,10A30,30,0,1,0,70,40,30,30,0,0,0,40,10ZM58.429,46.716c-.2,2.5-2.094,5.688-4.751,6.147a202.907,202.907,0,0,1-27.355,0c-2.743-.343-4.549-3.655-4.751-6.147a70.715,70.715,0,0,1,0-13.469c.2-2.492,2.051-5.78,4.751-6.08a191.513,191.513,0,0,1,27.355,0c3.061.11,4.549,3.257,4.751,5.755A74.155,74.155,0,0,1,58.429,46.716ZM36.253,47.5,47.5,40,36.253,32.5Z"/>
  </g>
</svg>
