<svg xmlns="http://www.w3.org/2000/svg" xmlns:xlink="http://www.w3.org/1999/xlink" width="24" height="23.823" viewBox="0 0 24 23.823">
  <defs>
    <clipPath id="clip-path">
      <rect id="Rectangle_12" data-name="Rectangle 12" width="24" height="23.823" transform="translate(0 0)" fill="none" stroke="#000" stroke-width="1"/>
    </clipPath>
  </defs>
  <g id="Group_77" data-name="Group 77" transform="translate(0 0)">
    <g id="Group_77-2" data-name="Group 77" clip-path="url(#clip-path)">
      <path id="Path_264" data-name="Path 264" d="M12,22.823l10.019-2a1.274,1.274,0,0,0,.981-1.2V1.823a.79.79,0,0,0-.981-.8L12,3.022" fill="none" stroke="#000" stroke-linecap="round" stroke-linejoin="round" stroke-width="1"/>
      <line id="Line_3" data-name="Line 3" y2="19.799" transform="translate(12 2.928)" stroke="#000" stroke-width="1"/>
      <line id="Line_4" data-name="Line 4" y2="19.799" transform="translate(12 2.928)" fill="none" stroke="#000" stroke-linecap="round" stroke-linejoin="round" stroke-width="1"/>
      <path id="Path_265" data-name="Path 265" d="M12,22.823l-10.019-2A1.274,1.274,0,0,1,1,19.622V1.823a.79.79,0,0,1,.981-.8L12,3.022" fill="none" stroke="#000" stroke-linecap="round" stroke-linejoin="round" stroke-width="1"/>
      <line id="Line_5" data-name="Line 5" x2="5" y2="1" transform="translate(4 5.823)" stroke="#000" stroke-width="1"/>
      <line id="Line_6" data-name="Line 6" x2="5" y2="1" transform="translate(4 5.823)" fill="none" stroke="#000" stroke-linecap="round" stroke-linejoin="round" stroke-width="1"/>
      <line id="Line_7" data-name="Line 7" x2="5" y2="1" transform="translate(4 10.823)" stroke="#000" stroke-width="1"/>
      <line id="Line_8" data-name="Line 8" x2="5" y2="1" transform="translate(4 10.823)" fill="none" stroke="#000" stroke-linecap="round" stroke-linejoin="round" stroke-width="1"/>
      <line id="Line_9" data-name="Line 9" x2="5" y2="1" transform="translate(4 15.823)" stroke="#000" stroke-width="1"/>
      <line id="Line_10" data-name="Line 10" x2="5" y2="1" transform="translate(4 15.823)" fill="none" stroke="#000" stroke-linecap="round" stroke-linejoin="round" stroke-width="1"/>
      <line id="Line_11" data-name="Line 11" y1="1" x2="5" transform="translate(15 15.823)" stroke="#000" stroke-width="1"/>
      <line id="Line_12" data-name="Line 12" y1="1" x2="5" transform="translate(15 15.823)" fill="none" stroke="#000" stroke-linecap="round" stroke-linejoin="round" stroke-width="1"/>
      <line id="Line_13" data-name="Line 13" y1="1" x2="5" transform="translate(15 10.823)" stroke="#000" stroke-width="1"/>
      <line id="Line_14" data-name="Line 14" y1="1" x2="5" transform="translate(15 10.823)" fill="none" stroke="#000" stroke-linecap="round" stroke-linejoin="round" stroke-width="1"/>
      <line id="Line_15" data-name="Line 15" y1="1" x2="5" transform="translate(15 5.823)" stroke="#000" stroke-width="1"/>
      <line id="Line_16" data-name="Line 16" y1="1" x2="5" transform="translate(15 5.823)" fill="none" stroke="#000" stroke-linecap="round" stroke-linejoin="round" stroke-width="1"/>
    </g>
  </g>
</svg>