<?xml version="1.0" encoding="utf-8"?>
<!-- Generator: Adobe Illustrator 22.0.1, SVG Export Plug-In . SVG Version: 6.00 Build 0)  -->
<svg version="1.1" id="Layer_1" xmlns="http://www.w3.org/2000/svg" xmlns:xlink="http://www.w3.org/1999/xlink" x="0px" y="0px"
	 width="2px" height="1500px" viewBox="0 0 2 1500" style="enable-background:new 0 0 2 1500;" xml:space="preserve">
<style type="text/css">
	.st0{fill:#FFFFFF;}
</style>
<path class="st0" d="M2,1496H0v-2h2V1496z M2,1490H0v-2h2V1490z M2,1484H0v-2h2V1484z M2,1478H0v-2h2V1478z M2,1472H0v-2h2V1472z
	 M2,1466H0v-2h2V1466z M2,1460H0v-2h2V1460z M2,1454H0v-2h2V1454z M2,1448H0v-2h2V1448z M2,1442H0v-2h2V1442z M2,1436H0v-2h2V1436z
	 M2,1430H0v-2h2V1430z M2,1424H0v-2h2V1424z M2,1418H0v-2h2V1418z M2,1412H0v-2h2V1412z M2,1406H0v-2h2V1406z M2,1400H0v-2h2V1400z
	 M2,1394H0v-2h2V1394z M2,1388H0v-2h2V1388z M2,1382H0v-2h2V1382z M2,1376H0v-2h2V1376z M2,1370H0v-2h2V1370z M2,1364H0v-2h2V1364z
	 M2,1358H0v-2h2V1358z M2,1352H0v-2h2V1352z M2,1346H0v-2h2V1346z M2,1340H0v-2h2V1340z M2,1334H0v-2h2V1334z M2,1328H0v-2h2V1328z
	 M2,1322H0v-2h2V1322z M2,1316H0v-2h2V1316z M2,1310H0v-2h2V1310z M2,1304H0v-2h2V1304z M2,1298H0v-2h2V1298z M2,1292H0v-2h2V1292z
	 M2,1286H0v-2h2V1286z M2,1280H0v-2h2V1280z M2,1274H0v-2h2V1274z M2,1268H0v-2h2V1268z M2,1262H0v-2h2V1262z M2,1256H0v-2h2V1256z
	 M2,1250H0v-2h2V1250z M2,1244H0v-2h2V1244z M2,1238H0v-2h2V1238z M2,1232H0v-2h2V1232z M2,1226H0v-2h2V1226z M2,1220H0v-2h2V1220z
	 M2,1214H0v-2h2V1214z M2,1208H0v-2h2V1208z M2,1202H0v-2h2V1202z M2,1196H0v-2h2V1196z M2,1190H0v-2h2V1190z M2,1184H0v-2h2V1184z
	 M2,1178H0v-2h2V1178z M2,1172H0v-2h2V1172z M2,1166H0v-2h2V1166z M2,1160H0v-2h2V1160z M2,1154H0v-2h2V1154z M2,1148H0v-2h2V1148z
	 M2,1142H0v-2h2V1142z M2,1136H0v-2h2V1136z M2,1130H0v-2h2V1130z M2,1124H0v-2h2V1124z M2,1118H0v-2h2V1118z M2,1112H0v-2h2V1112z
	 M2,1106H0v-2h2V1106z M2,1100H0v-2h2V1100z M2,1094H0v-2h2V1094z M2,1088H0v-2h2V1088z M2,1082H0v-2h2V1082z M2,1076H0v-2h2V1076z
	 M2,1070H0v-2h2V1070z M2,1064H0v-2h2V1064z M2,1058H0v-2h2V1058z M2,1052H0v-2h2V1052z M2,1046H0v-2h2V1046z M2,1040H0v-2h2V1040z
	 M2,1034H0v-2h2V1034z M2,1028H0v-2h2V1028z M2,1022H0v-2h2V1022z M2,1016H0v-2h2V1016z M2,1010H0v-2h2V1010z M2,1004H0v-2h2V1004z
	 M2,998H0v-2h2V998z M2,992H0v-2h2V992z M2,986H0v-2h2V986z M2,980H0v-2h2V980z M2,974H0v-2h2V974z M2,968H0v-2h2V968z M2,962H0v-2
	h2V962z M2,956H0v-2h2V956z M2,950H0v-2h2V950z M2,944H0v-2h2V944z M2,938H0v-2h2V938z M2,932H0v-2h2V932z M2,926H0v-2h2V926z
	 M2,920H0v-2h2V920z M2,914H0v-2h2V914z M2,908H0v-2h2V908z M2,902H0v-2h2V902z M2,896H0v-2h2V896z M2,890H0v-2h2V890z M2,884H0v-2
	h2V884z M2,878H0v-2h2V878z M2,872H0v-2h2V872z M2,866H0v-2h2V866z M2,860H0v-2h2V860z M2,854H0v-2h2V854z M2,848H0v-2h2V848z
	 M2,842H0v-2h2V842z M2,836H0v-2h2V836z M2,830H0v-2h2V830z M2,824H0v-2h2V824z M2,818H0v-2h2V818z M2,812H0v-2h2V812z M2,806H0v-2
	h2V806z M2,800H0v-2h2V800z M2,794H0v-2h2V794z M2,788H0v-2h2V788z M2,782H0v-2h2V782z M2,776H0v-2h2V776z M2,770H0v-2h2V770z
	 M2,764H0v-2h2V764z M2,758H0v-2h2V758z M2,752H0v-2h2V752z M2,746H0v-2h2V746z M2,740H0v-2h2V740z M2,734H0v-2h2V734z M2,728H0v-2
	h2V728z M2,722H0v-2h2V722z M2,716H0v-2h2V716z M2,710H0v-2h2V710z M2,704H0v-2h2V704z M2,698H0v-2h2V698z M2,692H0v-2h2V692z
	 M2,686H0v-2h2V686z M2,680H0v-2h2V680z M2,674H0v-2h2V674z M2,668H0v-2h2V668z M2,662H0v-2h2V662z M2,656H0v-2h2V656z M2,650H0v-2
	h2V650z M2,644H0v-2h2V644z M2,638H0v-2h2V638z M2,632H0v-2h2V632z M2,626H0v-2h2V626z M2,620H0v-2h2V620z M2,614H0v-2h2V614z
	 M2,608H0v-2h2V608z M2,602H0v-2h2V602z M2,596H0v-2h2V596z M2,590H0v-2h2V590z M2,584H0v-2h2V584z M2,578H0v-2h2V578z M2,572H0v-2
	h2V572z M2,566H0v-2h2V566z M2,560H0v-2h2V560z M2,554H0v-2h2V554z M2,548H0v-2h2V548z M2,542H0v-2h2V542z M2,536H0v-2h2V536z
	 M2,530H0v-2h2V530z M2,524H0v-2h2V524z M2,518H0v-2h2V518z M2,512H0v-2h2V512z M2,506H0v-2h2V506z M2,500H0v-2h2V500z M2,494H0v-2
	h2V494z M2,488H0v-2h2V488z M2,482H0v-2h2V482z M2,476H0v-2h2V476z M2,470H0v-2h2V470z M2,464H0v-2h2V464z M2,458H0v-2h2V458z
	 M2,452H0v-2h2V452z M2,446H0v-2h2V446z M2,440H0v-2h2V440z M2,434H0v-2h2V434z M2,428H0v-2h2V428z M2,422H0v-2h2V422z M2,416H0v-2
	h2V416z M2,410H0v-2h2V410z M2,404H0v-2h2V404z M2,398H0v-2h2V398z M2,392H0v-2h2V392z M2,386H0v-2h2V386z M2,380H0v-2h2V380z
	 M2,374H0v-2h2V374z M2,368H0v-2h2V368z M2,362H0v-2h2V362z M2,356H0v-2h2V356z M2,350H0v-2h2V350z M2,344H0v-2h2V344z M2,338H0v-2
	h2V338z M2,332H0v-2h2V332z M2,326H0v-2h2V326z M2,320H0v-2h2V320z M2,314H0v-2h2V314z M2,308H0v-2h2V308z M2,302H0v-2h2V302z
	 M2,296H0v-2h2V296z M2,290H0v-2h2V290z M2,284H0v-2h2V284z M2,278H0v-2h2V278z M2,272H0v-2h2V272z M2,266H0v-2h2V266z M2,260H0v-2
	h2V260z M2,254H0v-2h2V254z M2,248H0v-2h2V248z M2,242H0v-2h2V242z M2,236H0v-2h2V236z M2,230H0v-2h2V230z M2,224H0v-2h2V224z
	 M2,218H0v-2h2V218z M2,212H0v-2h2V212z M2,206H0v-2h2V206z M2,200H0v-2h2V200z M2,194H0v-2h2V194z M2,188H0v-2h2V188z M2,182H0v-2
	h2V182z M2,176H0v-2h2V176z M2,170H0v-2h2V170z M2,164H0v-2h2V164z M2,158H0v-2h2V158z M2,152H0v-2h2V152z M2,146H0v-2h2V146z
	 M2,140H0v-2h2V140z M2,134H0v-2h2V134z M2,128H0v-2h2V128z M2,122H0v-2h2V122z M2,116H0v-2h2V116z M2,110H0v-2h2V110z M2,104H0v-2
	h2V104z M2,98H0v-2h2V98z M2,92H0v-2h2V92z M2,86H0v-2h2V86z M2,80H0v-2h2V80z M2,74H0v-2h2V74z M2,68H0v-2h2V68z M2,62H0v-2h2V62z
	 M2,56H0v-2h2V56z M2,50H0v-2h2V50z M2,44H0v-2h2V44z M2,38H0v-2h2V38z M2,32H0v-2h2V32z M2,26H0v-2h2V26z M2,20H0v-2h2V20z M2,14H0
	v-2h2V14z M2,8H0V6h2V8z M2,2H0V0h2V2z"/>
</svg>
