<svg xmlns="http://www.w3.org/2000/svg" width="105" height="30.273" viewBox="0 0 105 30.273">
  <g id="Page-1" transform="translate(0 -0.164)">
    <g id="Group-3-Copy" transform="translate(0 0.164)">
      <g id="logo_og_DBS-blk" data-name="logo/og/DBS-blk" transform="translate(0 0)">
        <g id="Group_55" data-name="Group 55" transform="translate(0 0)">
          <g id="Logomark">
            <path id="Fill-1" d="M4.457,24.867h20V4.667h-20Z" transform="translate(0.527 0.369)" fill="#fff" fill-rule="evenodd"/>
            <path id="Path_259" data-name="Path 259" d="M24.329,24.766l-7.257-6.147a3.5,3.5,0,0,0-2.086-.97,3.5,3.5,0,0,0-2.1.97L5.635,24.766l-.023-.021,6.087-7.33a3.555,3.555,0,0,0,.958-2.117,3.554,3.554,0,0,0-.958-2.107L5.612,5.855l.023-.026,7.255,6.154a3.5,3.5,0,0,0,2.1.972,3.5,3.5,0,0,0,2.086-.972l7.257-6.154.03.032-6.1,7.329a3.563,3.563,0,0,0-.951,2.107,3.565,3.565,0,0,0,.951,2.117l6.1,7.328Zm3.4-9.468v0a14.066,14.066,0,0,1,1.539-6.9c.422-.91,1.355-2.237-.02-3.784A2.542,2.542,0,0,0,26,4.171a2.615,2.615,0,0,0-.442-3.28C24.03-.494,22.713.447,21.816.875a13.665,13.665,0,0,1-6.83,1.559A13.647,13.647,0,0,1,8.154.875C7.253.447,5.93-.494,4.4.891a2.613,2.613,0,0,0-.436,3.28,2.546,2.546,0,0,0-3.246.443C-.653,6.161.285,7.488.7,8.4a14,14,0,0,1,1.549,6.9A14.009,14.009,0,0,1,.7,22.205c-.414.9-1.352,2.239.022,3.785a2.561,2.561,0,0,0,3.246.444A2.6,2.6,0,0,0,4.4,29.7c1.527,1.394,2.85.452,3.751.023a13.65,13.65,0,0,1,6.833-1.554,13.658,13.658,0,0,1,6.829,1.554c.9.428,2.215,1.371,3.746-.023A2.6,2.6,0,0,0,26,26.434a2.548,2.548,0,0,0,3.243-.444c1.375-1.547.442-2.882.02-3.785A14.088,14.088,0,0,1,27.725,15.3Z" transform="translate(0 -0.164)" fill="#f33" fill-rule="evenodd"/>
          </g>
          <path id="DBS" d="M47.576,26.881c2.488-.9,5.566-5.188,5.056-11.94C52.14,8.409,49.675,3.277,43.11,2.8c0,0-1.243-.091-2.285-.1-1.117-.008-1.356-.046-1.439,1.16-.143,2.256-.184,19.822-.041,22.358.017.348.054,1.182,1.487,1.329A14.973,14.973,0,0,0,47.576,26.881Zm-2.54-25.2C50.591,1.657,57.9,5.5,57.873,15.114c-.019,8.359-5.995,13.508-11.514,13.508l-14.015,0,.018-.3c.788-.142,1.674-.639,1.821-1.169.464-2.014.359-20.441.078-23.476a1.946,1.946,0,0,0-1.73-1.711L32.5,1.683S43.792,1.69,45.036,1.683ZM75.763,22.019c.111-5.789-4.091-7.325-8.442-7.565-.091-.007-.056-.224.011-.235,1.414-.057,7.034-.715,6.806-6.138-.228-5.285-4.2-5.4-5.648-5.426-1.185-.016-1.443-.016-1.943.009-.843.037-1.053.1-1.048,1.023,0,.117-.185,9.521-.3,16.132-.052,3.593-.066,6.36-.066,6.36.021.659-.06,1.326,1.546,1.4a22.974,22.974,0,0,0,5.29-.17C73.342,27.116,75.67,26.1,75.763,22.019Zm-1.719-7.783c6.535,1.636,6.929,6.4,6.838,7.741-.3,5.966-5.307,6.649-7.324,6.649H58.141l.018-.3c1.12-.155,1.961-.775,1.961-2.763L60.21,5.015c.025-2.228-.555-2.909-1.776-3.054l-.028-.278H70.064c2.14,0,8.584-.429,9.133,5.554C79.633,12.026,74.425,14.026,74.044,14.235ZM99.182,1.764l.265,0,.091,4.8-.291,0c-.468-1.955-2.328-3.8-6.058-3.99-4.405-.234-6.309,2.418-6.338,4.927-.025,3.335,2.551,4.024,6.367,4.964,1.8.444,8.46,1.322,7.927,8.884-.37,5.282-4.884,7.793-11.277,7.594A29.87,29.87,0,0,1,83.5,27.811c-.686-.2-.869.037-1.145.548l-.3.016.01-5.176.293.015a3.819,3.819,0,0,0,1.128,2.328A8.035,8.035,0,0,0,89.314,27.7c3.467.047,6.341-1.431,6.727-5.361A4.4,4.4,0,0,0,93.7,17.759c-1.829-.863-6.907-1.433-9.368-3.612A6.5,6.5,0,0,1,81.87,8.258c.647-5.419,5.125-6.774,9.148-6.857a29.184,29.184,0,0,1,6.466.712,2.364,2.364,0,0,0,1.283-.031.826.826,0,0,0,.415-.318Z" transform="translate(3.825 -0.017)" fill-rule="evenodd"/>
        </g>
      </g>
    </g>
  </g>
</svg>