<svg xmlns="http://www.w3.org/2000/svg" xmlns:xlink="http://www.w3.org/1999/xlink" width="23" height="19" viewBox="0 0 23 19">
  <defs>
    <clipPath id="clip-path">
      <rect id="Rectangle_10" data-name="Rectangle 10" width="23" height="19" transform="translate(0.013)" fill="none" stroke="#000" stroke-width="1"/>
    </clipPath>
  </defs>
  <g id="Group_75" data-name="Group 75" transform="translate(-0.013)">
    <g id="Group_75-2" data-name="Group 75" clip-path="url(#clip-path)">
      <path id="Path_261" data-name="Path 261" d="M17.5,3.5h3a2.006,2.006,0,0,1,2,2v11a2.006,2.006,0,0,1-2,2H2.5a2.006,2.006,0,0,1-2-2V5.5a2.006,2.006,0,0,1,2-2h3" transform="translate(-0.01)" fill="none" stroke="#000" stroke-linecap="round" stroke-linejoin="round" stroke-width="1"/>
      <path id="Path_262" data-name="Path 262" d="M5.5,3.5,7.1.5H15.9l1.6,3" transform="translate(-0.01)" fill="none" stroke="#000" stroke-linecap="round" stroke-linejoin="round" stroke-width="1"/>
      <path id="Path_263" data-name="Path 263" d="M16,10a4.5,4.5,0,1,0-4.5,4.5A4.5,4.5,0,0,0,16,10Z" transform="translate(-0.01)" fill="none" stroke="#000" stroke-linecap="round" stroke-linejoin="round" stroke-width="1"/>
    </g>
  </g>
</svg>
