<?xml version="1.0" encoding="utf-8"?>
<!-- Generator: Adobe Illustrator 22.1.0, SVG Export Plug-In . SVG Version: 6.00 Build 0)  -->
<svg version="1.1" id="Layer_1" xmlns="http://www.w3.org/2000/svg" xmlns:xlink="http://www.w3.org/1999/xlink" x="0px" y="0px"
	 viewBox="0 0 303.6 303.6" style="enable-background:new 0 0 303.6 303.6;" xml:space="preserve">
<style type="text/css">
	.st0{fill:#000;stroke:#000;stroke-width:15;}
</style>
<g transform="translate(1497.151 10169)">
	<path class="st0" d="M-1202.6-9881.7l-81.4-81.4c20.2-21.7,31.5-50.2,31.4-79.9c0-65.5-53.1-118.5-118.5-118.5
		s-118.5,53.1-118.5,118.5c0,65.5,53.1,118.5,118.5,118.5c0,0,0,0,0,0c29.7,0.1,58.2-11.2,79.9-31.4l81.4,81.4c2,2,5.2,2,7.2,0
		C-1200.6-9876.5-1200.6-9879.7-1202.6-9881.7L-1202.6-9881.7z M-1371.1-9934.8c-59.8,0-108.2-48.4-108.2-108.2
		c0-59.8,48.4-108.2,108.2-108.2c59.8,0,108.2,48.4,108.2,108.2c0,0,0,0,0,0C-1262.9-9983.2-1311.4-9934.8-1371.1-9934.8
		C-1371.1-9934.8-1371.1-9934.8-1371.1-9934.8L-1371.1-9934.8z"/>
</g>
</svg>
