<svg id="Group_79" data-name="Group 79" xmlns="http://www.w3.org/2000/svg" xmlns:xlink="http://www.w3.org/1999/xlink" width="25.184" height="25.364" viewBox="0 0 25.184 25.364">
  <defs>
    <clipPath id="clip-path">
      <rect id="Rectangle_13" data-name="Rectangle 13" width="25.184" height="25.364" fill="none" stroke="#d3b886" stroke-width="1"/>
    </clipPath>
  </defs>
  <g id="Group_79-2" data-name="Group 79" clip-path="url(#clip-path)">
    <path id="Path_266" data-name="Path 266" d="M24.411,24.7l-9.2-7.79a4.436,4.436,0,0,0-2.644-1.23,4.43,4.43,0,0,0-2.661,1.23L.719,24.7.69,24.671,8.4,15.382A4.5,4.5,0,0,0,9.618,12.7,4.5,4.5,0,0,0,8.4,10.028L.69.731.719.7,9.914,8.5a4.43,4.43,0,0,0,2.661,1.232A4.436,4.436,0,0,0,15.219,8.5l9.2-7.8.038.041-7.731,9.288a4.517,4.517,0,0,0-1.2,2.67,4.515,4.515,0,0,0,1.2,2.683l7.731,9.288Z" transform="translate(0 0)" fill="none" stroke="#d3b886" stroke-miterlimit="10" stroke-width="1"/>
  </g>
</svg>
